<svg width="668" height="181" viewBox="0 0 668 181" fill="none" xmlns="http://www.w3.org/2000/svg">
<path d="M28.699 175.131L18.7321 158.729C15.7279 153.791 13.0418 148.535 10.7091 143.139C3.60505 126.631 0 108.959 0 90.5815C0 72.2042 3.56971 54.6382 10.6384 38.1656C13.1125 32.3808 16.046 26.8076 19.2976 21.5166L29.4059 5.18516L60.8971 26.1022L50.7888 42.4336C48.5268 46.0668 46.5122 49.9468 44.8157 53.9327C39.903 65.3965 37.3936 77.7421 37.3936 90.5815C37.3936 103.421 39.903 115.837 44.8511 127.336C46.4415 131.04 48.3148 134.673 50.4 138.094L60.3669 154.497L28.699 175.131Z" fill="white"/>
<path d="M57.5041 90.1582C57.5041 40.4583 98.0433 0 147.842 0V38.5183C119.32 38.5183 96.0993 61.6928 96.0993 90.1582C96.0993 118.624 119.32 141.798 147.842 141.798V180.316C98.0433 180.316 57.5041 139.858 57.5041 90.1582Z" fill="white"/>
<path d="M138.476 76.3312C130.771 76.3312 124.551 82.5392 124.551 90.2288C124.551 97.9183 130.771 104.126 138.476 104.126H163.676V129.276C163.676 136.966 169.897 143.174 177.602 143.174C185.307 143.174 191.527 136.966 191.527 129.276V76.3312H138.476Z" fill="#C9CACA"/>
<path d="M216.975 103.985C224.68 103.985 230.9 97.7772 230.9 90.0877C230.9 82.3981 224.68 76.1901 216.975 76.1901H191.775V51.0403C191.775 43.3507 185.554 37.1427 177.849 37.1427C170.144 37.1427 163.924 43.3507 163.924 51.0403V103.985H216.975Z" fill="white"/>
<path d="M603.986 37.1309H620.1V129.27H668V143.186H603.986V37.1309Z" fill="white"/>
<path d="M577.795 71.7012C576.916 67.2578 575.183 63.4492 572.595 60.2754C570.007 57.0527 566.784 54.6113 562.927 52.9512C559.118 51.291 554.943 50.4609 550.402 50.4609C544.25 50.4609 538.757 52.0234 533.923 55.1484C529.089 58.2246 525.305 62.7412 522.57 68.6982C519.836 74.6553 518.469 81.8086 518.469 90.1582C518.469 98.5078 519.836 105.686 522.57 111.691C525.354 117.648 529.138 122.165 533.923 125.241C538.757 128.317 544.25 129.855 550.402 129.855C554.895 129.855 559.045 129.05 562.854 127.438C566.662 125.778 569.86 123.386 572.448 120.261C575.085 117.087 576.867 113.303 577.795 108.908L594.055 109.055C592.932 115.988 590.368 122.165 586.364 127.585C582.409 132.956 577.307 137.155 571.057 140.183C564.855 143.161 557.922 144.65 550.256 144.65C541.027 144.65 532.8 142.453 525.573 138.059C518.347 133.664 512.683 127.365 508.581 119.162C504.528 110.91 502.502 101.242 502.502 90.1582C502.502 79.0742 504.553 69.4307 508.654 61.2275C512.756 52.9756 518.42 46.6523 525.646 42.2578C532.873 37.8633 541.076 35.666 550.256 35.666C557.727 35.666 564.562 37.1064 570.764 39.9873C576.965 42.8193 582.092 46.9453 586.145 52.3652C590.197 57.7852 592.834 64.2305 594.055 71.7012H577.795Z" fill="white"/>
<path d="M491.984 143.186H475.871V37.1309H491.984V143.186Z" fill="white"/>
<path d="M425.392 144.211C423.537 144.211 421.779 143.747 420.119 142.819C418.508 141.892 417.238 140.622 416.31 139.011C415.383 137.399 414.943 135.666 414.992 133.811C414.943 131.955 415.383 130.222 416.31 128.61C417.238 126.999 418.508 125.729 420.119 124.802C421.779 123.874 423.537 123.41 425.392 123.41C427.199 123.41 428.908 123.874 430.519 124.802C432.131 125.729 433.4 126.999 434.328 128.61C435.304 130.222 435.793 131.955 435.793 133.811C435.793 135.666 435.304 137.399 434.328 139.011C433.4 140.622 432.131 141.892 430.519 142.819C428.908 143.747 427.199 144.211 425.392 144.211Z" fill="white"/>
<path d="M377.229 63.6445H392.316V76.2422H393.195C394.66 71.9941 397.224 68.6494 400.886 66.208C404.548 63.7178 408.723 62.4727 413.41 62.4727C415.656 62.4727 417.854 62.5703 420.002 62.7656V77.707C419.123 77.5117 417.878 77.3164 416.267 77.1211C414.704 76.9258 413.215 76.8281 411.799 76.8281C408.234 76.8281 405.012 77.6094 402.131 79.1719C399.25 80.6855 396.979 82.8096 395.319 85.5439C393.708 88.2295 392.902 91.2812 392.902 94.6992V143.186H377.229V63.6445Z" fill="white"/>
<path d="M282.482 143.186V37.1309H317.932C328.283 37.1309 337.194 39.2549 344.665 43.5029C352.185 47.7021 357.922 53.7812 361.877 61.7402C365.881 69.6504 367.883 79.0742 367.883 90.0117C367.883 100.998 365.856 110.495 361.804 118.503C357.8 126.462 351.965 132.565 344.299 136.813C336.682 141.062 327.551 143.186 316.906 143.186H282.482ZM316.027 129.123C327.893 129.123 336.828 125.778 342.834 119.089C348.889 112.351 351.916 102.658 351.916 90.0117C351.916 77.4629 348.938 67.8682 342.98 61.2275C337.072 54.5381 328.381 51.1934 316.906 51.1934H298.596V129.123H316.027Z" fill="white"/>
</svg>
