<svg width="669" height="181" viewBox="0 0 669 181" fill="none" xmlns="http://www.w3.org/2000/svg">
<path d="M28.699 175.131L18.7321 158.729C15.7279 153.791 13.0418 148.535 10.7091 143.139C3.60505 126.631 0 108.959 0 90.5815C0 72.2042 3.56971 54.6382 10.6384 38.1656C13.1125 32.3808 16.046 26.8076 19.2976 21.5166L29.4059 5.18516L60.8971 26.1022L50.7888 42.4336C48.5268 46.0668 46.5122 49.9468 44.8157 53.9327C39.903 65.3965 37.3936 77.7421 37.3936 90.5815C37.3936 103.421 39.903 115.837 44.8511 127.336C46.4415 131.04 48.3148 134.673 50.4 138.094L60.3669 154.497L28.699 175.131Z" fill="#64C0A7"/>
<path d="M57.5041 90.1582C57.5041 40.4583 98.0433 0 147.842 0V38.5183C119.32 38.5183 96.0993 61.6928 96.0993 90.1582C96.0993 118.624 119.32 141.798 147.842 141.798V180.316C98.0433 180.316 57.5041 139.858 57.5041 90.1582Z" fill="#64C0A7"/>
<path d="M138.476 76.3312C130.771 76.3312 124.551 82.5392 124.551 90.2288C124.551 97.9183 130.771 104.126 138.476 104.126H163.676V129.276C163.676 136.966 169.897 143.174 177.602 143.174C185.307 143.174 191.527 136.966 191.527 129.276V76.3312H138.476Z" fill="#C9CACA"/>
<path d="M216.975 103.985C224.68 103.985 230.9 97.7772 230.9 90.0877C230.9 82.3981 224.68 76.1901 216.975 76.1901H191.775V51.0403C191.775 43.3507 185.554 37.1427 177.849 37.1427C170.144 37.1427 163.924 43.3507 163.924 51.0403V103.985H216.975Z" fill="#64C0A7"/>
<path d="M604.404 37.1309H620.518V129.27H668.418V143.186H604.404V37.1309Z" fill="#20354E"/>
<path d="M578.213 71.7012C577.334 67.2579 575.601 63.4493 573.013 60.2755C570.425 57.0528 567.202 54.6114 563.345 52.9512C559.536 51.2911 555.361 50.461 550.82 50.461C544.668 50.461 539.175 52.0235 534.341 55.1485C529.507 58.2247 525.723 62.7413 522.988 68.6983C520.254 74.6553 518.887 81.8087 518.887 90.1583C518.887 98.5079 520.254 105.686 522.988 111.691C525.771 117.648 529.556 122.165 534.341 125.241C539.175 128.317 544.668 129.856 550.82 129.856C555.312 129.856 559.463 129.05 563.271 127.439C567.08 125.778 570.278 123.386 572.866 120.261C575.503 117.087 577.285 113.303 578.213 108.908L594.473 109.055C593.35 115.988 590.786 122.165 586.782 127.585C582.827 132.956 577.725 137.155 571.475 140.183C565.273 143.161 558.34 144.65 550.674 144.65C541.445 144.65 533.218 142.453 525.991 138.059C518.765 133.664 513.101 127.365 508.999 119.162C504.946 110.91 502.92 101.242 502.92 90.1583C502.92 79.0743 504.971 69.4307 509.072 61.2276C513.174 52.9756 518.838 46.6524 526.064 42.2579C533.291 37.8633 541.494 35.6661 550.674 35.6661C558.145 35.6661 564.98 37.1065 571.182 39.9874C577.383 42.8194 582.51 46.9454 586.562 52.3653C590.615 57.7852 593.252 64.2305 594.473 71.7012H578.213Z" fill="#20354E"/>
<path d="M492.402 143.186H476.289V37.1309H492.402V143.186Z" fill="#20354E"/>
<path d="M425.81 144.211C423.955 144.211 422.197 143.747 420.537 142.819C418.926 141.892 417.656 140.622 416.728 139.011C415.801 137.399 415.361 135.666 415.41 133.811C415.361 131.955 415.801 130.222 416.728 128.61C417.656 126.999 418.926 125.73 420.537 124.802C422.197 123.874 423.955 123.41 425.81 123.41C427.617 123.41 429.326 123.874 430.937 124.802C432.549 125.73 433.818 126.999 434.746 128.61C435.722 130.222 436.211 131.955 436.211 133.811C436.211 135.666 435.722 137.399 434.746 139.011C433.818 140.622 432.549 141.892 430.937 142.819C429.326 143.747 427.617 144.211 425.81 144.211Z" fill="#20354E"/>
<path d="M377.646 63.6446H392.734V76.2422H393.613C395.078 71.9942 397.642 68.6495 401.304 66.2081C404.966 63.7178 409.141 62.4727 413.828 62.4727C416.074 62.4727 418.271 62.5704 420.42 62.7657V77.7071C419.541 77.5118 418.296 77.3165 416.685 77.1212C415.122 76.9258 413.633 76.8282 412.217 76.8282C408.652 76.8282 405.43 77.6094 402.549 79.1719C399.668 80.6856 397.397 82.8096 395.737 85.544C394.126 88.2296 393.32 91.2813 393.32 94.6993V143.186H377.646V63.6446Z" fill="#20354E"/>
<path d="M282.9 143.186V37.1309H318.35C328.701 37.1309 337.612 39.2549 345.083 43.503C352.603 47.7022 358.34 53.7813 362.295 61.7403C366.299 69.6505 368.301 79.0743 368.301 90.0118C368.301 100.998 366.274 110.495 362.222 118.503C358.218 126.462 352.383 132.565 344.717 136.814C337.1 141.062 327.969 143.186 317.324 143.186H282.9ZM316.445 129.123C328.311 129.123 337.246 125.778 343.252 119.089C349.307 112.351 352.334 102.658 352.334 90.0118C352.334 77.463 349.355 67.8682 343.398 61.2276C337.49 54.5381 328.799 51.1934 317.324 51.1934H299.014V129.123H316.445Z" fill="#20354E"/>
</svg>
