<svg width="85" height="68" viewBox="0 0 85 68" fill="none" xmlns="http://www.w3.org/2000/svg">
<mask id="mask0_1851_628" style="mask-type:luminance" maskUnits="userSpaceOnUse" x="0" y="0" width="84" height="68">
<path d="M83.6719 0.542969H0V67.4566H83.6719V0.542969Z" fill="white"/>
</mask>
<g mask="url(#mask0_1851_628)">
<path d="M10.4916 65.0311L6.83397 59.0186C5.77519 57.1761 4.71641 55.2365 3.94638 53.297C1.34754 47.1875 0 40.6901 0 33.9018C0 27.1134 1.34754 20.616 3.85013 14.6035C4.71641 12.47 5.77519 10.4335 7.02648 8.49397L10.6841 2.48145L22.1382 10.1426L18.4806 16.1551C17.6143 17.5128 16.9406 18.9674 16.2668 20.4221C14.438 24.689 13.5717 29.1499 13.5717 33.9018C13.5717 38.6536 14.5342 43.2115 16.2668 47.4784C16.8443 48.8361 17.5181 50.1938 18.2881 51.4545L21.9457 57.467L10.4916 65.0311Z" fill="#64BFA7"/>
</g>
<mask id="mask1_1851_628" style="mask-type:luminance" maskUnits="userSpaceOnUse" x="0" y="0" width="84" height="68">
<path d="M83.6719 0.542969H0V67.4566H83.6719V0.542969Z" fill="white"/>
</mask>
<g mask="url(#mask1_1851_628)">
<path d="M20.9844 33.7089C20.9844 15.4773 35.8074 0.542969 53.903 0.542969V14.7015C43.5076 14.7015 35.0373 23.2354 35.0373 33.7089C35.0373 44.1823 43.5076 52.7162 53.903 52.7162V66.8747C35.8074 66.9717 20.9844 52.0374 20.9844 33.7089Z" fill="#64BFA7"/>
</g>
<mask id="mask2_1851_628" style="mask-type:luminance" maskUnits="userSpaceOnUse" x="0" y="0" width="85" height="68">
<path d="M85 0.542969H0V67.4566H85V0.542969Z" fill="white"/>
</mask>
<g mask="url(#mask2_1851_628)">
<path d="M59.6777 28.2773H50.4374C47.646 28.2773 45.3359 30.6048 45.3359 33.4171C45.3359 36.2294 47.646 38.5568 50.4374 38.5568H59.6777V47.8665C59.6777 50.6789 61.9877 53.0063 64.7791 53.0063C67.5704 53.0063 69.8805 50.6789 69.8805 47.8665V28.2773H59.6777Z" fill="#C9CACA"/>
<path d="M69.7028 38.632H78.9431C81.7345 38.632 84.0446 36.3045 84.0446 33.4922C84.0446 30.6799 81.7345 28.3525 78.9431 28.3525H69.7028V19.1397C69.7028 16.3274 67.3928 14 64.6014 14C61.8101 14 59.5 16.3274 59.5 19.1397V38.632H69.7028Z" fill="#64BFA7"/>
</g>
</svg>
