<svg width="271" height="47" viewBox="0 0 271 47" fill="none" xmlns="http://www.w3.org/2000/svg">
<g clip-path="url(#clip0_427_561)">
<path d="M7.74204 45.6092L5.0529 41.3331C4.23946 40.0429 3.51215 38.679 2.89011 37.2782C0.976128 32.9837 0 28.3759 0 23.5929C0 18.81 0.966558 14.2298 2.87097 9.94449C3.54086 8.44233 4.32559 6.98625 5.20602 5.6039L7.93344 1.35547L16.4315 6.80194L13.7041 11.0504C13.1012 11.9996 12.5557 13.0041 12.0963 14.0455C10.7661 17.0314 10.0962 20.2476 10.0962 23.5929C10.0962 26.9382 10.7757 30.1729 12.1059 33.1588C12.5365 34.1264 13.0438 35.0664 13.5988 35.9604L16.2879 40.2364L7.74204 45.6092Z" fill="#64C0A7"/>
<path d="M15.522 23.4816C15.522 10.5335 26.4604 0 39.906 0V10.0359C32.2023 10.0359 25.9436 16.0722 25.9436 23.4816C25.9436 30.891 32.2119 36.9273 39.906 36.9273V46.9631C26.4604 46.9631 15.522 36.4296 15.522 23.4816Z" fill="#64C0A7"/>
<path d="M44.1743 19.877H37.3701C35.2934 19.877 33.6091 21.4989 33.6091 23.4987C33.6091 25.4985 35.2934 27.1205 37.3701 27.1205H44.1743V33.6728C44.1743 35.6726 45.8586 37.2946 47.9353 37.2946C50.0119 37.2946 51.6962 35.6726 51.6962 33.6728V19.8862H44.1839L44.1743 19.877Z" fill="#CFD0D0"/>
<path d="M51.7539 27.0837H58.558C60.6347 27.0837 62.319 25.4617 62.319 23.4619C62.319 21.4621 60.6347 19.8401 58.558 19.8401H51.7539V13.2878C51.7539 11.288 50.0696 9.66602 47.9929 9.66602C45.9162 9.66602 44.2319 11.288 44.2319 13.2878V27.0744H51.7443L51.7539 27.0837Z" fill="#64C0A7"/>
<path d="M80.0236 31.241V27.7943H102.561V38.6412H98.2064V31.241H80.0236ZM102.561 14.5698H107.221V18.2561H102.561V25.3614H98.2734V21.2512C98.1968 21.371 98.0724 21.5092 97.9001 21.6843C97.7279 21.8594 97.4312 22.0806 97.0101 22.3663C96.5891 22.6428 96.1106 22.8916 95.5747 23.1128C95.0387 23.3339 94.3497 23.5275 93.4884 23.7026C92.6367 23.8777 91.7084 23.9606 90.7132 23.9606H80.5404C80.0427 23.9606 79.6217 23.8132 79.2771 23.509L77.4493 21.8041C77.0569 21.4079 76.856 20.9471 76.856 20.4126V9.34453H93.431V12.8281H81.0667V20.5508H90.828C91.919 20.5508 92.9429 20.431 93.8999 20.2006C94.8569 19.9702 95.6416 19.6753 96.2445 19.3251C96.857 18.9749 97.3068 18.6985 97.6035 18.4865C97.9001 18.2745 98.1202 18.0902 98.2734 17.9336V8.29395H102.561V14.5606V14.5698Z" fill="white"/>
<path d="M118.293 25.6827H119.222C121.269 25.6827 123.413 25.5814 125.662 25.3786C127.911 25.1759 129.098 25.0008 129.232 24.8441V28.1986C129.165 28.3092 128.638 28.429 127.662 28.5672C126.686 28.7055 125.404 28.8253 123.815 28.9267C122.226 29.028 120.657 29.0741 119.116 29.0741H114.178C113.719 29.0741 113.326 28.9359 113.001 28.6594L111.307 27.0743C110.934 26.7057 110.752 26.2818 110.752 25.7841V9.35254H125.251V12.8361H114.657V17.7388H124.389V21.0657H114.657V25.6827H118.284H118.293Z" fill="white"/>
<path d="M132.189 8.30176V18.2271H126.6V21.7014H132.189V38.6398H136.476V8.30176H132.189Z" fill="white"/>
<path d="M152.037 8.9209H148.046V36.8076H152.037V8.9209Z" fill="white"/>
<path d="M178.68 28.4473C177.732 30.0232 176.574 31.295 175.244 32.2073C173.866 33.1381 172.297 33.6081 170.593 33.6081C169.11 33.6081 167.703 33.3316 166.421 32.7879C165.091 32.2166 164.019 31.4793 163.129 30.5209C162.21 29.5624 161.502 28.4105 161.014 27.1018C160.497 25.7932 160.229 24.3556 160.229 22.8442C160.229 21.3328 160.478 19.8767 160.985 18.6142C161.435 17.3609 162.105 16.2089 162.976 15.1952C163.808 14.2552 164.803 13.5087 166 12.9005C167.177 12.3383 168.459 12.0526 169.789 12.0526C171.655 12.0526 173.368 12.5226 174.881 13.4534C176.383 14.4579 177.589 15.702 178.488 17.1489L178.67 17.453L181.618 15.3058L181.455 15.0569C180.106 13.0387 178.479 11.4997 176.469 10.3477C174.45 9.24184 172.23 8.67969 169.885 8.67969C167.942 8.67969 166.124 9.02988 164.478 9.72106C162.784 10.4583 161.32 11.4444 160.133 12.6701C158.918 13.9326 157.98 15.4071 157.281 17.1673C156.573 18.863 156.219 20.7707 156.219 22.835C156.219 25.0191 156.592 26.9267 157.348 28.6777C158.057 30.4195 159.071 31.9309 160.344 33.1842C161.559 34.373 163.014 35.3315 164.689 36.0318C166.411 36.6862 168.115 36.9995 169.885 36.9995C172.354 36.9995 174.641 36.4281 176.68 35.2946C178.689 34.1058 180.297 32.576 181.589 30.6222L181.742 30.3918L178.871 28.1156L178.68 28.4381V28.4473Z" fill="white"/>
<path d="M189.111 33.2872V8.9209H185.121V36.8168H203.744V33.2872H189.111Z" fill="white"/>
<path d="M217.227 27.793H213.025V35.1932C213.025 35.7277 213.217 36.1977 213.609 36.594L215.322 38.2436C215.667 38.5477 216.078 38.7043 216.566 38.7043H235.17V35.2577H217.236V27.793H217.227Z" fill="white"/>
<path d="M213.696 17.0753C213.696 15.8772 214.136 14.8543 214.998 14.0341C215.859 13.2139 216.921 12.7992 218.156 12.7992C219.39 12.7992 220.443 13.2139 221.314 14.0341C222.175 14.8543 222.615 15.8772 222.615 17.0753C222.615 18.2733 222.175 19.287 221.314 20.1165C220.452 20.9367 219.39 21.3606 218.156 21.3606C216.921 21.3606 215.869 20.9459 214.998 20.1165C214.136 19.2963 213.696 18.2733 213.696 17.0753ZM224.347 22.5586C225.965 21.0288 226.778 19.1857 226.778 17.0937C226.778 15.0018 225.965 13.1586 224.347 11.6288C222.778 10.1174 220.692 9.35254 218.146 9.35254C215.601 9.35254 213.514 10.1174 211.954 11.6288C210.347 13.1586 209.524 15.0018 209.524 17.0937C209.524 19.1857 210.337 21.0288 211.954 22.5586C213.524 24.0423 215.601 24.798 218.146 24.798C220.692 24.798 222.778 24.0423 224.347 22.5586Z" fill="white"/>
<path d="M234.463 14.3565V8.30176H230.3V30.9631H234.463V18.0612H238.827V14.3565H234.463Z" fill="white"/>
<path d="M266.637 14.358V8.3125H262.464V27.0111C262.349 27.1401 262.177 27.2968 261.948 27.4811C261.708 27.6747 261.287 27.9419 260.665 28.2829C260.081 28.5962 259.45 28.8635 258.78 29.057V12.8927C258.78 12.3398 258.588 11.8605 258.196 11.4643L256.445 9.77779C256.081 9.47368 255.651 9.32622 255.172 9.32622H241.315V12.8374H254.607V29.527H250.923V19.5464H247.105V29.527H240.655V33.0013H255.459C256.397 33.0013 257.268 32.9184 258.072 32.7617C258.876 32.605 259.536 32.4115 260.043 32.1811C260.541 31.96 261 31.7111 261.402 31.4347C261.804 31.1582 262.082 30.937 262.254 30.7711C262.34 30.6882 262.407 30.6145 262.464 30.5407V38.7058H266.637V18.0719H271.001V14.358H266.637Z" fill="white"/>
</g>
<defs>
<clipPath id="clip0_427_561">
<rect width="271" height="47" fill="white"/>
</clipPath>
</defs>
</svg>
