<svg width="208" height="37" viewBox="0 0 208 37" fill="none" xmlns="http://www.w3.org/2000/svg">
<g clip-path="url(#clip0_462_776)">
<path d="M5.94223 35.9052L3.87824 32.5389C3.2539 31.5232 2.69567 30.4495 2.21824 29.3467C0.749205 25.966 0 22.3385 0 18.5732C0 14.8079 0.74186 11.2022 2.20355 7.82871C2.71771 6.64616 3.32001 5.49988 3.99576 4.41165L6.08913 1.06714L12.6116 5.35478L10.5183 8.69929C10.0555 9.44655 9.63684 10.2373 9.28427 11.0571C8.2633 13.4077 7.74914 15.9397 7.74914 18.5732C7.74914 21.2067 8.27064 23.7532 9.29162 26.1038C9.62215 26.8656 10.0114 27.6056 10.4375 28.3093L12.5014 31.6756L5.94223 35.9052Z" fill="#64C0A7"/>
<path d="M11.9136 18.4855C11.9136 8.29235 20.3091 0 30.629 0V7.90059C24.7162 7.90059 19.9124 12.6525 19.9124 18.4855C19.9124 24.3184 24.7235 29.0704 30.629 29.0704V36.971C20.3091 36.971 11.9136 28.6786 11.9136 18.4855Z" fill="#64C0A7"/>
<path d="M33.9049 15.6479H28.6825C27.0886 15.6479 25.7959 16.9248 25.7959 18.4991C25.7959 20.0734 27.0886 21.3503 28.6825 21.3503H33.9049V26.5085C33.9049 28.0829 35.1977 29.3597 36.7916 29.3597C38.3855 29.3597 39.6782 28.0829 39.6782 26.5085V15.6552H33.9123L33.9049 15.6479Z" fill="#CFD0D0"/>
<path d="M39.7225 21.3214H44.9449C46.5388 21.3214 47.8316 20.0445 47.8316 18.4702C47.8316 16.8959 46.5388 15.619 44.9449 15.619H39.7225V10.4608C39.7225 8.88648 38.4298 7.60962 36.8359 7.60962C35.242 7.60962 33.9492 8.88648 33.9492 10.4608V21.3141H39.7152L39.7225 21.3214Z" fill="#64C0A7"/>
<path d="M61.4205 24.5938V21.8804H78.7183V30.4194H75.3763V24.5938H61.4205ZM78.7183 11.4696H82.2954V14.3716H78.7183V19.9651H75.4277V16.7294C75.3689 16.8238 75.2735 16.9326 75.1413 17.0704C75.009 17.2083 74.7813 17.3824 74.4582 17.6073C74.135 17.8249 73.7677 18.0208 73.3564 18.1949C72.9451 18.3691 72.4162 18.5214 71.7551 18.6592C71.1014 18.7971 70.3889 18.8624 69.625 18.8624H61.8171C61.4352 18.8624 61.112 18.7463 60.8476 18.5069L59.4447 17.1647C59.1435 16.8528 58.9893 16.49 58.9893 16.0692V7.35611H71.7111V10.0985H62.2211V16.1781H69.7132C70.5505 16.1781 71.3365 16.0838 72.071 15.9024C72.8055 15.721 73.4078 15.4889 73.8705 15.2132C74.3406 14.9375 74.6858 14.7198 74.9135 14.553C75.1412 14.3861 75.3102 14.241 75.4277 14.1177V6.52905H78.7183V11.4624V11.4696Z" fill="#303030"/>
<path d="M90.7933 20.2185H91.5058C93.0777 20.2185 94.723 20.1387 96.4491 19.9791C98.1752 19.8195 99.086 19.6816 99.1888 19.5583V22.1991C99.1374 22.2861 98.7335 22.3804 97.9842 22.4893C97.235 22.5981 96.2508 22.6924 95.0315 22.7722C93.8122 22.852 92.6076 22.8883 91.425 22.8883H87.6349C87.2824 22.8883 86.9812 22.7795 86.7315 22.5618L85.4314 21.314C85.1449 21.0238 85.0054 20.69 85.0054 20.2983V7.36279H96.1333V10.1051H88.0022V13.9648H95.4722V16.5838H88.0022V20.2185H90.786H90.7933Z" fill="#303030"/>
<path d="M101.459 6.53589V14.3494H97.1689V17.0845H101.459V30.419H104.749V6.53589H101.459Z" fill="#303030"/>
<path d="M116.693 7.02319H113.63V28.9765H116.693V7.02319Z" fill="#303030"/>
<path d="M137.142 22.395C136.415 23.6356 135.526 24.6368 134.505 25.355C133.447 26.0878 132.243 26.4578 130.935 26.4578C129.797 26.4578 128.717 26.2401 127.733 25.8121C126.712 25.3623 125.889 24.7819 125.206 24.0274C124.501 23.2729 123.957 22.366 123.583 21.3358C123.186 20.3056 122.98 19.1738 122.98 17.984C122.98 16.7942 123.171 15.648 123.561 14.654C123.906 13.6674 124.42 12.7605 125.089 11.9625C125.728 11.2225 126.491 10.6348 127.41 10.156C128.313 9.71345 129.297 9.48855 130.318 9.48855C131.751 9.48855 133.065 9.85855 134.226 10.5913C135.379 11.3821 136.305 12.3615 136.995 13.5005L137.135 13.7399L139.397 12.0495L139.272 11.8536C138.236 10.2648 136.988 9.05325 135.445 8.14639C133.895 7.2758 132.191 6.83325 130.392 6.83325C128.901 6.83325 127.505 7.10894 126.242 7.65306C124.942 8.23345 123.818 9.00972 122.907 9.97462C121.974 10.9685 121.254 12.1293 120.718 13.515C120.175 14.8499 119.903 16.3517 119.903 17.9768C119.903 19.6962 120.189 21.198 120.77 22.5764C121.313 23.9476 122.092 25.1374 123.069 26.124C124.001 27.0599 125.118 27.8144 126.403 28.3658C127.725 28.8809 129.033 29.1276 130.392 29.1276C132.287 29.1276 134.042 28.6778 135.607 27.7854C137.149 26.8495 138.383 25.6452 139.375 24.1072L139.492 23.9258L137.289 22.1338L137.142 22.3878V22.395Z" fill="#303030"/>
<path d="M145.148 26.2052V7.02319H142.085V28.9838H156.379V26.2052H145.148Z" fill="#303030"/>
<path d="M166.727 21.8796H163.503V27.7053C163.503 28.1261 163.65 28.4961 163.951 28.8081L165.266 30.1067C165.53 30.3461 165.846 30.4694 166.221 30.4694H180.5V27.7561H166.735V21.8796H166.727Z" fill="#303030"/>
<path d="M164.018 13.4424C164.018 12.4993 164.356 11.694 165.017 11.0483C165.678 10.4026 166.493 10.0761 167.441 10.0761C168.388 10.0761 169.196 10.4026 169.865 11.0483C170.526 11.694 170.864 12.4993 170.864 13.4424C170.864 14.3855 170.526 15.1836 169.865 15.8365C169.204 16.4822 168.388 16.8159 167.441 16.8159C166.493 16.8159 165.685 16.4895 165.017 15.8365C164.356 15.1908 164.018 14.3855 164.018 13.4424ZM172.193 17.7591C173.434 16.5548 174.059 15.1038 174.059 13.4569C174.059 11.81 173.434 10.3591 172.193 9.15475C170.988 7.96495 169.387 7.36279 167.433 7.36279C165.48 7.36279 163.878 7.96495 162.681 9.15475C161.447 10.3591 160.815 11.81 160.815 13.4569C160.815 15.1038 161.44 16.5548 162.681 17.7591C163.886 18.9271 165.48 19.522 167.433 19.522C169.387 19.522 170.988 18.9271 172.193 17.7591Z" fill="#303030"/>
<path d="M179.957 11.3024V6.53589H176.762V24.3757H179.957V14.2188H183.306V11.3024H179.957Z" fill="#303030"/>
<path d="M204.651 11.3034V6.54419H201.449V21.2644C201.36 21.366 201.228 21.4893 201.052 21.6344C200.868 21.7867 200.545 21.9971 200.068 22.2656C199.62 22.5122 199.135 22.7226 198.621 22.875V10.1499C198.621 9.71458 198.474 9.33733 198.173 9.02537L196.828 7.69772C196.549 7.45831 196.219 7.34223 195.852 7.34223H185.216V10.1063H195.418V23.245H192.59V15.3879H189.66V23.245H184.709V25.9801H196.072C196.792 25.9801 197.46 25.9148 198.077 25.7914C198.694 25.6681 199.201 25.5158 199.59 25.3344C199.972 25.1603 200.325 24.9644 200.633 24.7467C200.942 24.5291 201.155 24.355 201.287 24.2244C201.353 24.1591 201.405 24.1011 201.449 24.043V30.4709H204.651V14.2271H208V11.3034H204.651Z" fill="#303030"/>
</g>
<defs>
<clipPath id="clip0_462_776">
<rect width="208" height="37" fill="white"/>
</clipPath>
</defs>
</svg>
