<svg width="27" height="20" viewBox="0 0 27 20" fill="none" xmlns="http://www.w3.org/2000/svg">
<path d="M3.29707 19.4234L2.15186 17.6024C1.80544 17.0529 1.4957 16.4721 1.2308 15.8755C0.4157 14.0467 0 12.0843 0 10.0474C0 8.01055 0.411624 6.06 1.22265 4.23504C1.50793 3.59532 1.84212 2.97523 2.21707 2.38653L3.37858 0.577271L6.99761 2.89674L5.8361 4.706C5.57934 5.11024 5.34704 5.53802 5.15142 5.98151C4.58492 7.25309 4.29964 8.6228 4.29964 10.0474C4.29964 11.4721 4.589 12.8496 5.15549 14.1212C5.33889 14.5333 5.55489 14.9336 5.79127 15.3143L6.93648 17.1354L3.29707 19.4234Z" fill="#64C0A7"/>
<path d="M6.61084 10C6.61084 4.48587 11.2691 0 16.9952 0V4.27394C13.7144 4.27394 11.049 6.84458 11.049 10C11.049 13.1554 13.7185 15.7261 16.9952 15.7261V20C11.2691 20 6.61084 15.5141 6.61084 10Z" fill="#64C0A7"/>
<path d="M18.8128 8.46509H15.9151C15.0308 8.46509 14.3135 9.15583 14.3135 10.0075C14.3135 10.8591 15.0308 11.5499 15.9151 11.5499H18.8128V14.3403C18.8128 15.1919 19.5301 15.8827 20.4145 15.8827C21.2989 15.8827 22.0161 15.1919 22.0161 14.3403V8.46901H18.8169L18.8128 8.46509Z" fill="#CFD0D0"/>
<path d="M22.0407 11.534H24.9384C25.8228 11.534 26.5401 10.8433 26.5401 9.99165C26.5401 9.14 25.8228 8.44927 24.9384 8.44927H22.0407V5.65884C22.0407 4.80719 21.3235 4.11646 20.4391 4.11646C19.5547 4.11646 18.8374 4.80719 18.8374 5.65884V11.5301H22.0367L22.0407 11.534Z" fill="#64C0A7"/>
</svg>
