<svg width="271" height="47" viewBox="0 0 271 47" fill="none" xmlns="http://www.w3.org/2000/svg">
<g clip-path="url(#clip0_502_8834)">
<path d="M7.74204 45.6093L5.0529 41.3332C4.23946 40.043 3.51215 38.6791 2.89011 37.2783C0.976128 32.9838 0 28.376 0 23.593C0 18.8101 0.966558 14.2299 2.87097 9.94461C3.54086 8.44245 4.32559 6.98637 5.20602 5.60402L7.93344 1.35559L16.4315 6.80206L13.7041 11.0505C13.1012 11.9997 12.5557 13.0042 12.0963 14.0456C10.7661 17.0315 10.0962 20.2477 10.0962 23.593C10.0962 26.9383 10.7757 30.173 12.1059 33.1589C12.5365 34.1266 13.0438 35.0666 13.5988 35.9605L16.2879 40.2366L7.74204 45.6093Z" fill="#64C0A7"/>
<path d="M15.522 23.4816C15.522 10.5335 26.4604 0 39.906 0V10.0359C32.2023 10.0359 25.9436 16.0722 25.9436 23.4816C25.9436 30.891 32.2119 36.9273 39.906 36.9273V46.9631C26.4604 46.9631 15.522 36.4296 15.522 23.4816Z" fill="#64C0A7"/>
<path d="M44.1745 19.8772H37.3703C35.2937 19.8772 33.6094 21.4992 33.6094 23.499C33.6094 25.4988 35.2937 27.1207 37.3703 27.1207H44.1745V33.6731C44.1745 35.6729 45.8588 37.2948 47.9355 37.2948C50.0122 37.2948 51.6965 35.6729 51.6965 33.6731V19.8864H44.1841L44.1745 19.8772Z" fill="#CFD0D0"/>
<path d="M51.7539 27.084H58.558C60.6347 27.084 62.319 25.4621 62.319 23.4623C62.319 21.4625 60.6347 19.8405 58.558 19.8405H51.7539V13.2881C51.7539 11.2883 50.0696 9.66638 47.9929 9.66638C45.9162 9.66638 44.2319 11.2883 44.2319 13.2881V27.0748H51.7443L51.7539 27.084Z" fill="#64C0A7"/>
<path d="M80.0236 31.2408V27.7941H102.561V38.641H98.2064V31.2408H80.0236ZM102.561 14.5696H107.221V18.2559H102.561V25.3612H98.2734V21.251C98.1968 21.3708 98.0724 21.509 97.9001 21.6841C97.7279 21.8592 97.4312 22.0804 97.0101 22.3661C96.5891 22.6425 96.1106 22.8913 95.5747 23.1125C95.0387 23.3337 94.3497 23.5272 93.4884 23.7023C92.6367 23.8774 91.7084 23.9604 90.7132 23.9604H80.5404C80.0427 23.9604 79.6217 23.8129 79.2771 23.5088L77.4493 21.8039C77.0569 21.4076 76.856 20.9468 76.856 20.4123V9.34429H93.431V12.8278H81.0667V20.5506H90.828C91.919 20.5506 92.9429 20.4308 93.8999 20.2004C94.8569 19.97 95.6416 19.6751 96.2445 19.3249C96.857 18.9747 97.3068 18.6982 97.6035 18.4862C97.9001 18.2743 98.1202 18.09 98.2734 17.9333V8.2937H102.561V14.5604V14.5696Z" fill="white"/>
<path d="M118.293 25.6829H119.221C121.269 25.6829 123.413 25.5815 125.662 25.3787C127.911 25.176 129.097 25.0009 129.231 24.8442V28.1987C129.164 28.3093 128.638 28.4291 127.662 28.5674C126.686 28.7056 125.403 28.8254 123.815 28.9268C122.226 29.0282 120.657 29.0742 119.116 29.0742H114.178C113.719 29.0742 113.326 28.936 113.001 28.6595L111.307 27.0744C110.934 26.7058 110.752 26.2819 110.752 25.7842V9.35266H125.25V12.8362H114.656V17.7389H124.389V21.0658H114.656V25.6829H118.283H118.293Z" fill="white"/>
<path d="M132.189 8.30225V18.2275H126.6V21.7019H132.189V38.6403H136.476V8.30225H132.189Z" fill="white"/>
<path d="M152.037 8.92139H148.046V36.8081H152.037V8.92139Z" fill="white"/>
<path d="M178.68 28.4478C177.732 30.0237 176.574 31.2955 175.244 32.2078C173.866 33.1386 172.297 33.6086 170.593 33.6086C169.11 33.6086 167.703 33.3321 166.421 32.7884C165.091 32.217 164.019 31.4798 163.129 30.5214C162.21 29.5629 161.502 28.411 161.014 27.1023C160.497 25.7937 160.229 24.3561 160.229 22.8447C160.229 21.3333 160.478 19.8772 160.985 18.6147C161.435 17.3614 162.105 16.2094 162.976 15.1957C163.808 14.2557 164.803 13.5092 166 12.901C167.177 12.3388 168.459 12.0531 169.789 12.0531C171.655 12.0531 173.368 12.5231 174.881 13.4539C176.383 14.4584 177.589 15.7025 178.488 17.1494L178.67 17.4535L181.618 15.3063L181.455 15.0574C180.106 13.0392 178.479 11.5002 176.469 10.3482C174.45 9.24233 172.23 8.68018 169.885 8.68018C167.942 8.68018 166.124 9.03037 164.478 9.72155C162.784 10.4588 161.32 11.4449 160.133 12.6706C158.918 13.9331 157.98 15.4076 157.281 17.1678C156.573 18.8635 156.219 20.7712 156.219 22.8355C156.219 25.0196 156.592 26.9272 157.348 28.6782C158.057 30.42 159.071 31.9314 160.344 33.1847C161.559 34.3735 163.014 35.3319 164.689 36.0323C166.411 36.6866 168.115 37 169.885 37C172.354 37 174.641 36.4286 176.68 35.2951C178.689 34.1063 180.297 32.5765 181.589 30.6227L181.742 30.3923L178.871 28.1161L178.68 28.4386V28.4478Z" fill="white"/>
<path d="M189.111 33.2877V8.92139H185.121V36.8173H203.744V33.2877H189.111Z" fill="white"/>
<path d="M217.227 27.7931H213.025V35.1933C213.025 35.7278 213.217 36.1978 213.609 36.5941L215.322 38.2437C215.667 38.5478 216.078 38.7045 216.566 38.7045H235.17V35.2578H217.236V27.7931H217.227Z" fill="white"/>
<path d="M213.696 17.0754C213.696 15.8774 214.137 14.8544 214.998 14.0342C215.859 13.214 216.921 12.7993 218.156 12.7993C219.39 12.7993 220.443 13.214 221.314 14.0342C222.175 14.8544 222.616 15.8774 222.616 17.0754C222.616 18.2734 222.175 19.2872 221.314 20.1166C220.453 20.9368 219.39 21.3607 218.156 21.3607C216.921 21.3607 215.869 20.946 214.998 20.1166C214.137 19.2964 213.696 18.2734 213.696 17.0754ZM224.348 22.5587C225.965 21.0289 226.778 19.1858 226.778 17.0938C226.778 15.0019 225.965 13.1587 224.348 11.6289C222.778 10.1176 220.692 9.35266 218.146 9.35266C215.601 9.35266 213.515 10.1176 211.955 11.6289C210.347 13.1587 209.524 15.0019 209.524 17.0938C209.524 19.1858 210.337 21.0289 211.955 22.5587C213.524 24.0425 215.601 24.7981 218.146 24.7981C220.692 24.7981 222.778 24.0425 224.348 22.5587Z" fill="white"/>
<path d="M234.463 14.357V8.30225H230.3V30.9636H234.463V18.0617H238.827V14.357H234.463Z" fill="white"/>
<path d="M266.637 14.3585V8.31299H262.464V27.0116C262.349 27.1406 262.177 27.2973 261.947 27.4816C261.708 27.6751 261.287 27.9424 260.665 28.2834C260.081 28.5967 259.45 28.864 258.78 29.0575V12.8932C258.78 12.3402 258.588 11.861 258.196 11.4648L256.445 9.77828C256.081 9.47416 255.65 9.32671 255.172 9.32671H241.315V12.8379H254.607V29.5275H250.923V19.5469H247.104V29.5275H240.654V33.0018H255.459C256.397 33.0018 257.268 32.9189 258.071 32.7622C258.875 32.6055 259.536 32.412 260.043 32.1816C260.541 31.9604 261 31.7116 261.402 31.4351C261.804 31.1587 262.081 30.9375 262.254 30.7716C262.34 30.6887 262.407 30.615 262.464 30.5412V38.7063H266.637V18.0724H271V14.3585H266.637Z" fill="white"/>
</g>
<defs>
<clipPath id="clip0_502_8834">
<rect width="271" height="47" fill="white"/>
</clipPath>
</defs>
</svg>
