<svg width="21" height="16" viewBox="0 0 21 16" fill="none" xmlns="http://www.w3.org/2000/svg">
<path d="M2.60883 15.3689L1.70267 13.928C1.42857 13.4933 1.18349 13.0337 0.973876 12.5616C0.328925 11.1145 0 9.56182 0 7.95012C0 6.33842 0.3257 4.79503 0.967427 3.35102C1.19316 2.84484 1.45759 2.35419 1.75427 1.88838L2.67332 0.456787L5.53691 2.29208L4.61785 3.72367C4.41469 4.04352 4.23088 4.38201 4.07609 4.73292C3.62785 5.73907 3.40212 6.82286 3.40212 7.95012C3.40212 9.07738 3.63107 10.1674 4.07932 11.1735C4.22443 11.4996 4.39534 11.8163 4.58238 12.1176L5.48853 13.5585L2.60883 15.3689Z" fill="#64C0A7"/>
<path d="M5.23096 7.91256C5.23096 3.54947 8.91685 0 13.4476 0V3.38178C10.8517 3.38178 8.74272 5.41582 8.74272 7.91256C8.74272 10.4093 10.8549 12.4433 13.4476 12.4433V15.8251C8.91685 15.8251 5.23096 12.2757 5.23096 7.91256Z" fill="#64C0A7"/>
<path d="M14.8858 6.69812H12.593C11.8932 6.69812 11.3257 7.24467 11.3257 7.91854C11.3257 8.59241 11.8932 9.13897 12.593 9.13897H14.8858V11.3469C14.8858 12.0208 15.4534 12.5673 16.1531 12.5673C16.8529 12.5673 17.4205 12.0208 17.4205 11.3469V6.70123H14.889L14.8858 6.69812Z" fill="#CFD0D0"/>
<path d="M17.4399 9.12641H19.7327C20.4325 9.12641 21.0001 8.57986 21.0001 7.90599C21.0001 7.23212 20.4325 6.68557 19.7327 6.68557H17.4399V4.47762C17.4399 3.80375 16.8724 3.2572 16.1726 3.2572C15.4728 3.2572 14.9053 3.80375 14.9053 4.47762V9.1233H17.4367L17.4399 9.12641Z" fill="#64C0A7"/>
</svg>
