<?xml version="1.0" encoding="utf-8"?>
<!-- Generator: Adobe Illustrator 24.2.0, SVG Export Plug-In . SVG Version: 6.00 Build 0)  -->
<svg version="1.1" id="레이어_1" xmlns="http://www.w3.org/2000/svg" xmlns:xlink="http://www.w3.org/1999/xlink" x="0px"
	 y="0px" viewBox="0 0 314.6 69" style="enable-background:new 0 0 314.6 69;" xml:space="preserve">
<style type="text/css">
	.st0{clip-path:url(#SVGID_2_);fill:#FFFFFF;}
</style>
<g>
	<defs>
		<rect id="SVGID_1_" y="0" width="314.6" height="69"/>
	</defs>
	<clipPath id="SVGID_2_">
		<use xlink:href="#SVGID_1_"  style="overflow:visible;"/>
	</clipPath>
	<path class="st0" d="M10.9,66.5l-3.8-6.2c-1.1-1.9-2.2-3.9-3-5.9c-2.7-6.3-4.1-13-4.1-20c0-7,1.4-13.7,4-19.9
		c0.9-2.2,2-4.3,3.3-6.3L11.1,2l11.9,7.9l-3.8,6.2c-0.9,1.4-1.6,2.9-2.3,4.4c-1.9,4.4-2.8,9-2.8,13.9c0,4.9,1,9.6,2.8,14
		c0.6,1.4,1.3,2.8,2.1,4.1l3.8,6.2L10.9,66.5z"/>
	<path class="st0" d="M21.8,34.2C21.8,15.4,37.2,0,56,0v14.6c-10.8,0-19.6,8.8-19.6,19.6S45.2,53.8,56,53.8v14.6
		C37.2,68.5,21.8,53.1,21.8,34.2"/>
	<path class="st0" d="M62,28.6h-9.6c-2.9,0-5.3,2.4-5.3,5.3c0,2.9,2.4,5.3,5.3,5.3H62v9.6c0,2.9,2.4,5.3,5.3,5.3s5.3-2.4,5.3-5.3
		V28.6H62z"/>
	<path class="st0" d="M72.7,39.1h9.6c2.9,0,5.3-2.4,5.3-5.3c0-2.9-2.4-5.3-5.3-5.3h-9.6V19c0-2.9-2.4-5.3-5.3-5.3
		c-2.9,0-5.3,2.4-5.3,5.3v20.1H72.7z"/>
	<path class="st0" d="M113.1,56.4v-5.8h36.7V69h-7.1V56.4H113.1z M149.8,28.2h7.6v6.2h-7.6v12h-7v-6.9c-0.1,0.2-0.3,0.4-0.6,0.7
		c-0.3,0.3-0.8,0.7-1.5,1.1c-0.7,0.5-1.5,0.9-2.3,1.3c-0.9,0.4-2,0.7-3.4,1c-1.4,0.3-2.9,0.4-4.5,0.4h-2.1h-7.9h-6.6
		c-0.8,0-1.5-0.3-2.1-0.8l-3-2.9c-0.6-0.7-1-1.5-1-2.4V19.4h27v5.9h-20.1v13.1h5.8h7.9h2.2c1.8,0,3.4-0.2,5-0.6
		c1.6-0.4,2.8-0.9,3.8-1.5c1-0.6,1.7-1.1,2.2-1.4c0.5-0.4,0.8-0.7,1.1-0.9V17.6h7V28.2z"/>
	<path class="st0" d="M198.1,17.6h7V69h-7V40.3H189v-5.9h9.1V17.6z M175.4,47h1.5c3.3,0,6.8-0.2,10.5-0.5c3.7-0.3,5.6-0.6,5.8-0.9
		v5.7c-0.1,0.2-1,0.4-2.6,0.6c-1.6,0.2-3.7,0.4-6.3,0.6c-2.6,0.2-5.1,0.2-7.7,0.2h-1.3h-0.8h-5.8c-0.8,0-1.4-0.2-1.9-0.7l-2.8-2.7
		c-0.6-0.6-0.9-1.3-0.9-2.2v-4.1v-0.3v-1.4v-0.5V19.4h0.3h6.1h17.3v5.9h-17.3v8.3h15.9v5.6h-15.9v0.3v1.9v1.4V47h5.1H175.4z"/>
	<rect x="223.9" y="18.7" class="st0" width="6.5" height="47.2"/>
	<path class="st0" d="M274.4,52.1c-1.6,2.8-3.5,5-5.8,6.6c-2.3,1.6-5,2.5-7.8,2.5c-2.5,0-4.9-0.5-7-1.4c-2.2-1-4.1-2.3-5.5-4
		c-1.5-1.7-2.7-3.7-3.6-6c-0.9-2.3-1.3-4.8-1.3-7.5c0-2.7,0.4-5.2,1.3-7.4c0.8-2.2,1.9-4.2,3.4-6c1.4-1.6,3.1-3,5.1-4
		c2-1,4.1-1.5,6.4-1.5c3.1,0,6,0.8,8.6,2.5c2.5,1.8,4.6,3.9,6.1,6.5l0.3,0.5l5-3.8l-0.3-0.4c-2.3-3.5-5-6.2-8.4-8.2
		c-3.4-1.9-7.1-2.9-11.1-2.9c-3.3,0-6.3,0.6-9.1,1.8c-2.9,1.3-5.3,3-7.3,5.2c-2.1,2.2-3.6,4.8-4.8,7.9c-1.2,3-1.8,6.3-1.8,9.9
		c0,3.8,0.6,7.2,1.9,10.2c1.2,3,2.9,5.7,5.1,7.9c2,2.1,4.5,3.8,7.3,5c2.9,1.1,5.8,1.7,8.8,1.7c4.2,0,8-1,11.5-3
		c3.4-2.1,6.1-4.8,8.3-8.2l0.3-0.4l-4.8-4L274.4,52.1z"/>
	<polygon class="st0" points="284.3,18.7 284.3,65.9 314.6,65.9 314.6,59.9 290.8,59.9 290.8,18.7 	"/>
</g>
</svg>
