<svg xmlns="http://www.w3.org/2000/svg" width="34" height="34" viewBox="0 0 34 34" fill="none">
  <path d="M24.6812 20.574C24.3185 20.5725 23.9715 20.4259 23.7176 20.1668L16.9997 13.449L10.2819 20.1668C9.66351 20.5904 8.81884 20.4326 8.39525 19.8142C8.08862 19.3666 8.07803 18.7795 8.3683 18.3211L16.0362 10.6397C16.564 10.1076 17.4233 10.104 17.9555 10.6318C17.9581 10.6344 17.9607 10.6371 17.9633 10.6397L25.6311 18.3211C26.1573 18.8504 26.1573 19.7054 25.6311 20.2347C25.3698 20.4656 25.0296 20.5871 24.6812 20.574Z" fill="white"/>
  <path d="M17.0002 31.8927C16.2507 31.8927 15.6431 31.2851 15.6431 30.5356V11.5356C15.6431 10.7861 16.2507 10.1785 17.0002 10.1785C17.7497 10.1785 18.3574 10.7861 18.3574 11.5356V30.5356C18.3574 31.2851 17.7497 31.8927 17.0002 31.8927Z" fill="white"/>
  <path d="M25.1424 8.8212H8.85667C8.10714 8.8212 7.49951 8.21357 7.49951 7.46404C7.49951 6.71452 8.10714 6.10693 8.85667 6.10693H25.1424C25.8919 6.10693 26.4995 6.71456 26.4995 7.46409C26.4995 8.21362 25.8919 8.8212 25.1424 8.8212Z" fill="white"/>
</svg>
