<svg preserveAspectRatio="none" width="100%" height="100%" overflow="visible" style="display: block;" viewBox="0 0 30.316 30.3158" fill="none" xmlns="http://www.w3.org/2000/svg">
<g id="jt-kakao">
<path id="Vector" d="M11.9523 11.7534L11.0782 14.2178H12.8251L11.9523 11.7534Z" fill="var(--fill-0, #202020)"/>
<path id="Vector_2" d="M15.1581 1.26243C6.78711 1.26243 0.00015278 6.57781 0.00015278 13.1349C0.00015278 17.374 2.83721 21.094 7.10542 23.1934C5.46458 28.8145 5.42163 28.8397 5.69953 29.0027C6.04816 29.206 6.50037 28.9964 12.4663 24.8203C13.3404 24.9429 14.2397 25.0073 15.1581 25.0073C23.529 25.0073 30.316 19.6919 30.316 13.1349C30.316 6.57781 23.529 1.26243 15.1581 1.26243ZM7.65237 16.4494C7.65237 16.9067 7.25953 17.2793 6.77826 17.2793C6.297 17.2793 5.90416 16.9067 5.90416 16.4494V11.2881H4.53995C4.06626 11.2881 3.68226 10.9067 3.68226 10.438C3.68226 9.96939 4.065 9.58665 4.53868 9.58665H9.01658C9.49027 9.58665 9.87427 9.96812 9.87427 10.4368C9.87427 10.9054 9.489 11.2881 9.01658 11.2881H7.65237V16.4494ZM14.4456 17.2679C13.5362 17.2679 13.7042 16.5542 13.2848 15.7584H10.6183C10.2027 16.5479 10.3656 17.2679 9.45742 17.2679C8.58205 17.2692 8.42795 16.7361 8.69448 15.9151L10.7863 10.4456C10.9341 10.0288 11.3812 9.60055 11.9509 9.58791C12.5218 9.60055 12.9703 10.0288 13.1168 10.4456C14.4974 14.7277 16.4692 17.2692 14.4456 17.2679ZM19.4212 17.1517H16.6157C15.1517 17.1517 16.0423 15.1749 15.7783 10.4557C15.7783 9.97697 16.1787 9.58665 16.6713 9.58665C17.164 9.58665 17.5644 9.9757 17.5644 10.4557V15.5589H19.4225C19.8848 15.5589 20.26 15.9163 20.26 16.3547C20.2587 16.7942 19.8835 17.1517 19.4212 17.1517ZM26.2663 16.4974C26.2347 16.726 26.1122 16.9319 25.9265 17.0709C24.7202 17.9816 23.8284 15.3264 22.6511 14.2022L22.348 14.5041V16.3989C22.348 16.8789 21.9564 17.2679 21.4726 17.2679C20.9901 17.2679 20.5985 16.8789 20.5985 16.3989V10.4557C20.5985 9.97697 20.9901 9.58665 21.4726 9.58665C21.9551 9.58665 22.3467 9.9757 22.3467 10.4557V12.3227C23.9598 11.1125 24.8541 8.95002 25.8734 9.96181C26.8739 10.9547 24.8023 11.8237 23.9446 13.0212C25.9707 15.8153 26.356 15.8848 26.2663 16.4974Z" fill="var(--fill-0, #202020)"/>
</g>
</svg>
