<svg preserveAspectRatio="none" width="100%" height="100%" overflow="visible" style="display: block;" viewBox="0 0 34 34" fill="none" xmlns="http://www.w3.org/2000/svg">
<g id="famicons:call">
<path id="Vector" d="M24.8361 30.0028C23.703 30.0028 22.1114 29.593 19.7279 28.2614C16.8296 26.636 14.5878 25.1355 11.7052 22.2604C8.92587 19.4828 7.57337 17.6845 5.68043 14.24C3.54196 10.3508 3.9065 8.31216 4.31399 7.44087C4.79927 6.3995 5.51558 5.77665 6.44144 5.15844C6.96732 4.81389 7.52383 4.51853 8.10392 4.27612C8.16197 4.25116 8.21595 4.22736 8.26413 4.20588C8.55147 4.07643 8.98682 3.88081 9.53828 4.08978C9.9063 4.22794 10.2348 4.51063 10.7491 5.01854C11.8039 6.05876 13.2452 8.37544 13.7769 9.51317C14.1339 10.28 14.3702 10.7862 14.3707 11.3539C14.3707 12.0185 14.0364 12.5311 13.6306 13.0843C13.5546 13.1882 13.4791 13.2874 13.406 13.3838C12.9642 13.9643 12.8673 14.132 12.9312 14.4315C13.0606 15.0335 14.0259 16.8254 15.6124 18.4084C17.1988 19.9913 18.9391 20.8957 19.5434 21.0246C19.8557 21.0913 20.0269 20.9903 20.6259 20.5329C20.7119 20.4673 20.8001 20.3994 20.8924 20.3315C21.5112 19.8712 21.9999 19.5455 22.6489 19.5455H22.6524C23.2172 19.5455 23.7007 19.7905 24.5018 20.1945C25.5466 20.7216 27.933 22.1443 28.9796 23.2002C29.4886 23.7134 29.7725 24.0407 29.9112 24.4082C30.1202 24.9614 29.9234 25.395 29.7951 25.6852C29.7737 25.7334 29.7499 25.7862 29.7249 25.8449C29.4806 26.4239 29.1835 26.9793 28.8374 27.5039C28.2203 28.4268 27.5951 29.1414 26.5514 29.6272C26.0155 29.8808 25.429 30.0092 24.8361 30.0028Z" fill="var(--fill-0, #64C0A7)"/>
</g>
</svg>
