<svg preserveAspectRatio="none" width="100%" height="100%" overflow="visible" style="display: block;" viewBox="0 0 27 27.121" fill="none" xmlns="http://www.w3.org/2000/svg">
<g id="Layer 4">
<path id="Vector" d="M26.7109 15.3473C26.5723 15.1816 26.3852 15.0637 26.176 15.01C25.9667 14.9563 25.7459 14.9696 25.5447 15.048L24.9357 15.2854V19.5377L26.7935 16.5962C26.9184 16.4077 26.978 16.1834 26.9631 15.9578C26.9482 15.7322 26.8596 15.5177 26.7109 15.3473ZM18.6605 26.1122C18.675 26.3076 18.7448 26.4948 18.8618 26.652C18.9787 26.8092 19.138 26.9298 19.321 26.9998H20.0538C20.2664 26.9225 20.4478 26.7774 20.5699 26.587L21.602 24.9356H18.5676L18.6605 26.1122Z" fill="var(--fill-0, #64C0A7)"/>
<path id="Vector_2" d="M21.8394 0H5.16055C3.79189 0 2.47928 0.543699 1.51149 1.51149C0.543699 2.47928 0 3.79189 0 5.16055V21.8394C0 23.2081 0.543699 24.5207 1.51149 25.4885C2.47928 26.4563 3.79189 27 5.16055 27H16.7305C16.6507 26.763 16.6022 26.5167 16.586 26.2672L16.5034 24.9358H5.15023C4.32903 24.9358 3.54147 24.6096 2.96079 24.0289C2.38012 23.4482 2.0539 22.6606 2.0539 21.8394V9.02064H24.9358V13.0768C25.2666 12.9584 25.6166 12.9024 25.9679 12.9117C26.3215 12.9186 26.671 12.9885 27 13.1181V5.16055C27 3.79189 26.4563 2.47928 25.4885 1.51149C24.5207 0.543699 23.2081 0 21.8394 0ZM6.15138 6.08945C5.89825 6.08945 5.65081 6.01439 5.44035 5.87376C5.22988 5.73313 5.06585 5.53325 4.96898 5.2994C4.87211 5.06554 4.84677 4.80821 4.89615 4.55995C4.94553 4.31169 5.06742 4.08365 5.24641 3.90467C5.42539 3.72568 5.65344 3.60379 5.9017 3.55441C6.14996 3.50503 6.40728 3.53037 6.64114 3.62724C6.875 3.7241 7.07488 3.88814 7.2155 4.0986C7.35613 4.30907 7.43119 4.55651 7.43119 4.80963C7.43119 4.9777 7.39809 5.14412 7.33377 5.2994C7.26946 5.45467 7.17518 5.59576 7.05634 5.7146C6.9375 5.83344 6.79642 5.92771 6.64114 5.99203C6.48587 6.05635 6.31944 6.08945 6.15138 6.08945ZM20.8486 6.08945C20.5092 6.08945 20.1837 5.95461 19.9437 5.7146C19.7036 5.47459 19.5688 5.14906 19.5688 4.80963C19.5688 4.4702 19.7036 4.14468 19.9437 3.90467C20.1837 3.66465 20.5092 3.52982 20.8486 3.52982C21.1881 3.52982 21.5136 3.66465 21.7536 3.90467C21.9936 4.14468 22.1284 4.4702 22.1284 4.80963C22.1284 5.14906 21.9936 5.47459 21.7536 5.7146C21.5136 5.95461 21.1881 6.08945 20.8486 6.08945Z" fill="var(--fill-0, #64C0A7)"/>
<path id="Vector_3" d="M26.7936 16.5963L24.9358 19.5791L21.5814 24.9771L20.5493 26.6285C20.4272 26.8189 20.2459 26.964 20.0332 27.0413C19.9194 27.091 19.7962 27.1156 19.672 27.1136C19.5897 27.1235 19.5066 27.1235 19.4243 27.1136H19.3004C19.1175 27.0436 18.9582 26.9229 18.8412 26.7657C18.7242 26.6086 18.6544 26.4213 18.6399 26.2259L18.5677 25.0493L18.3922 22.3452L14.6456 21.3957C14.4353 21.3419 14.2473 21.2232 14.1083 21.0564C13.9693 20.8897 13.8865 20.6833 13.8716 20.4668C13.8562 20.248 13.911 20.0299 14.0279 19.8444C14.1448 19.6588 14.3178 19.5153 14.5218 19.4347L24.9358 15.3991L25.5447 15.1617C25.746 15.0833 25.9668 15.07 26.176 15.1237C26.3853 15.1774 26.5724 15.2954 26.711 15.461C26.8346 15.6213 26.9083 15.8144 26.923 16.0163C26.9376 16.2181 26.8926 16.4199 26.7936 16.5963Z" fill="var(--fill-0, #64C0A7)"/>
<path id="Vector_4" d="M26.7936 16.5963L24.9358 19.5791L21.5814 24.9771L20.5493 26.6285C20.4272 26.8189 20.2459 26.964 20.0332 27.0413C19.9194 27.091 19.7962 27.1156 19.672 27.1136C19.5897 27.1235 19.5066 27.1235 19.4243 27.1136H19.3004C19.1175 27.0436 18.9582 26.9229 18.8412 26.7657C18.7242 26.6086 18.6544 26.4213 18.6399 26.2259L18.5677 25.0493L18.3922 22.3452L14.6456 21.3957C14.4353 21.3419 14.2473 21.2232 14.1083 21.0564C13.9693 20.8897 13.8865 20.6833 13.8716 20.4668C13.8562 20.248 13.911 20.0299 14.0279 19.8444C14.1448 19.6588 14.3178 19.5153 14.5218 19.4347L24.9358 15.3991L25.5447 15.1617C25.746 15.0833 25.9668 15.07 26.176 15.1237C26.3853 15.1774 26.5724 15.2954 26.711 15.461C26.8346 15.6213 26.9083 15.8144 26.923 16.0163C26.9376 16.2181 26.8926 16.4199 26.7936 16.5963Z" fill="var(--fill-0, #64C0A7)"/>
</g>
</svg>
