<svg preserveAspectRatio="none" width="100%" height="100%" overflow="visible" style="display: block;" viewBox="0 0 32.8535 32.9995" fill="none" xmlns="http://www.w3.org/2000/svg">
<g id="Group 2436">
<path id="Vector" d="M9.07182 27.7648L9.56982 28.0601C11.6649 29.3012 14.0553 29.956 16.4904 29.9557H16.495C23.988 29.9557 30.088 23.8577 30.0905 16.3626C30.0926 12.7303 28.6788 9.31627 26.1115 6.74607C23.5438 4.17669 20.1323 2.76047 16.4999 2.76047C8.99985 2.76047 2.90234 8.85799 2.89779 16.351C2.89373 18.9098 3.61449 21.4174 4.97662 23.5835L5.30007 24.0972L3.92521 29.1136L9.07182 27.7648ZM0 32.9995L2.31873 24.5253C0.884699 22.04 0.131411 19.2204 0.134839 16.351C0.139388 7.33464 7.47651 0 16.4929 0C20.8694 0 24.9762 1.70244 28.0646 4.79546C31.1535 7.88599 32.8535 11.9928 32.8535 16.3626C32.8489 25.3786 25.5093 32.7161 16.4954 32.7161H16.4888C13.7578 32.7163 11.0704 32.0318 8.67227 30.7254L0 32.9995Z" fill="var(--fill-0, white)"/>
<path id="Vector_2" fill-rule="evenodd" clip-rule="evenodd" d="M12.4068 9.51618C12.0999 8.83496 11.7789 8.82131 11.4885 8.80931C11.2511 8.80021 10.9765 8.80021 10.7043 8.80021C10.4326 8.80021 9.98834 8.90238 9.61361 9.31186C9.23929 9.72133 8.18374 10.7095 8.18374 12.7209C8.18374 14.7327 9.64877 16.6742 9.85351 16.9488C10.0578 17.221 12.6814 21.4792 16.8345 23.1183C20.2882 24.4791 20.9905 24.209 21.7392 24.1416C22.4878 24.0742 24.158 23.1531 24.4976 22.2001C24.8367 21.2463 24.8367 20.4278 24.737 20.2561C24.6345 20.0861 24.3623 19.9835 23.9532 19.7792C23.5438 19.5745 21.5344 18.5859 21.1601 18.4486C20.7858 18.3117 20.5136 18.2443 20.2394 18.6534C19.9672 19.0628 19.1834 19.9835 18.9464 20.2557C18.709 20.5279 18.4695 20.5626 18.06 20.3583C17.6506 20.1535 16.3349 19.7209 14.7743 18.3303C13.5603 17.2467 12.7393 15.9094 12.4998 15.5C12.2628 15.0905 12.4742 14.8696 12.6789 14.6653C12.8626 14.4812 13.0884 14.1884 13.2927 13.9489C13.4975 13.709 13.5649 13.5394 13.7022 13.2673C13.8395 12.9955 13.7696 12.756 13.6675 12.5513C13.5628 12.3466 12.7699 10.3256 12.4068 9.51618Z" fill="var(--fill-0, white)"/>
</g>
</svg>
