<svg preserveAspectRatio="none" width="100%" height="100%" overflow="visible" style="display: block;" viewBox="0 0 24 24" fill="none" xmlns="http://www.w3.org/2000/svg">
<g id="lightning 1">
<path id="Vector" d="M13.5909 10.1721L16.2817 2.98284C16.3578 2.74886 16.3344 2.50902 16.194 2.31013C16.0536 2.11709 15.8313 2.0001 15.6032 2.0001H7.74124C7.39026 2.0001 7.08607 2.24578 7.02758 2.59091L4.9568 13.6C4.91 13.8223 4.98019 14.0387 5.10304 14.2025C5.25513 14.378 5.45987 14.4833 5.66461 14.4833H10.1396L8.12731 21.0641C8.04542 21.3917 8.17411 21.731 8.47244 21.9007C8.60114 21.9767 8.70643 22.0001 8.83512 22.0001C9.03401 22.0001 9.2212 21.9065 9.37329 21.7544L18.8731 11.3362C19.0486 11.1256 19.1188 10.8155 18.996 10.5465C18.8731 10.2949 18.6216 10.137 18.3174 10.137L13.5909 10.1721Z" fill="var(--fill-0, white)"/>
</g>
</svg>
